<?xml version="1.0" encoding="UTF-8" standalone="no"?>
<svg xmlns="http://www.w3.org/2000/svg" viewBox="0 0 128 128">
<style>path{fill:#C41}@media(prefers-color-scheme:dark){path{fill:#FB7}}</style>
<path d="M 15.2 90.591 L 15.51 35.671 L 9.31 35.671 L 9.31 105.551 C 17.83 103.351 26.38 101.951 34.99 101.891 C 42.94 101.841 50.89 102.951 58.86 105.651 C 53.91 101.641 48.39 98.691 42.5 96.771 C 35.08 94.351 27.06 93.551 18.84 94.251 C 16.98 94.401 15.36 93.021 15.2 91.171 C 15.18 90.971 15.18 90.781 15.2 90.591 Z M 106.18 32.801 C 106.16 32.641 106.14 32.471 106.14 32.291 C 106.14 32.121 106.15 31.951 106.18 31.781 L 106.18 20.661 C 98.38 19.921 90.34 20.781 83.32 23.441 C 76.76 25.931 71.1 30.021 67.42 35.881 L 67.42 99.221 C 73.14 95.401 78.99 92.261 85 90.121 C 91.85 87.681 98.89 86.521 106.18 87.101 L 106.18 32.801 Z M 112.93 28.921 L 122.07 28.921 C 123.93 28.921 125.44 30.431 125.44 32.291 L 125.44 109.951 C 125.44 111.811 123.93 113.321 122.07 113.321 C 121.69 113.321 121.32 113.261 120.98 113.141 C 111.58 110.451 102.24 108.661 92.99 108.601 C 83.97 108.541 74.96 110.131 65.91 114.121 C 65.35 114.491 64.68 114.691 63.99 114.681 C 63.31 114.691 62.64 114.491 62.07 114.121 C 53.03 110.121 44.01 108.541 34.99 108.601 C 25.74 108.661 16.41 110.451 7 113.141 C 6.66 113.261 6.29 113.321 5.91 113.321 C 4.07 113.331 2.56 111.821 2.56 109.961 L 2.56 32.291 C 2.56 30.431 4.07 28.921 5.93 28.921 L 15.54 28.921 L 15.6 17.661 C 15.61 16.041 16.75 14.701 18.28 14.381 C 27.15 12.531 37.93 12.991 47.38 16.611 C 53.91 19.111 59.84 23.101 64.17 28.861 C 68.54 23.491 74.38 19.631 80.95 17.141 C 89.93 13.731 100.29 12.911 110.04 14.341 C 111.72 14.581 112.92 16.031 112.92 17.671 L 112.92 28.921 L 112.93 28.921 Z M 70.69 105.141 C 78.14 102.801 85.58 101.841 93.02 101.881 C 101.63 101.931 110.18 103.341 118.7 105.541 L 118.7 35.671 L 112.93 35.671 L 112.93 90.891 C 112.93 92.751 111.42 94.261 109.56 94.261 C 109.29 94.261 109.03 94.231 108.78 94.171 C 101.4 93.011 94.25 93.971 87.27 96.461 C 81.65 98.471 76.13 101.471 70.69 105.141 L 70.69 105.141 Z M 60.68 98.571 L 60.68 35.781 C 57.15 29.551 51.44 25.381 44.99 22.911 C 37.68 20.111 29.47 19.481 22.31 20.501 L 21.93 87.311 C 29.74 87.031 37.38 88.021 44.57 90.371 C 50.29 92.231 55.71 94.961 60.68 98.571 L 60.68 98.571 Z"/>
<path style="stroke-width:3" d="m 100.29396,71.312 c -0.415997,-0.896 -0.927997,-2.208 -1.535997,-3.904 l -6.944,-19.264 c -0.64,-1.696 -0.864,-2.528 -1.088,-3.456 h -8.352 c -0.16,0.928 -0.448,1.888 -1.024,3.456 l -6.912,19.264 c -0.768,2.176 -1.056,2.944 -1.536,3.904 h 7.488 c 0.16,-1.184 0.384,-2.176 0.8,-3.456 l 0.864,-2.72 h 9.12 l 0.864,2.72 c 0.32,1.088 0.512,1.92 0.768,3.456 z M 89.605963,59.76 h -6.016 l 2.976,-9.6 z"/>
<path style="stroke-width:3" d="m 56.296136,46.448 c -1.44,0.16 -2.72,0.224 -4.64,0.224 h -7.616 V 44.72 c 0,-0.672 0.064,-1.312 0.192,-1.952 h -6.432 c 0.128,0.64 0.192,1.248 0.192,1.984 v 1.92 h -7.072 c -1.92,0 -3.168,-0.064 -4.64,-0.224 v 5.792 c 1.6,-0.128 2.688,-0.192 4.576,-0.192 0.8,2.528 1.248,3.648 2.208,5.472 1.184,2.208 2.464,4.032 4.128,5.856 -3.104,1.888 -6.464,3.136 -11.36,4.192 1.568,2.112 2.304,3.456 3.072,5.664 5.504,-1.664 9.248,-3.392 12.736,-5.888 3.52,2.528 7.232,4.32 12.192,5.824 0.864,-2.4 1.664,-3.84 3.168,-5.888 -4.416,-0.768 -7.904,-2.016 -10.976,-3.872 1.408,-1.568 2.56,-3.232 3.552,-5.184 0.992,-1.984 1.504,-3.392 2.176,-6.176 1.888,0 3.136,0.064 4.544,0.192 z m -10.816,5.6 c -0.864,3.232 -2.048,5.504 -4,7.744 -2.24,-2.4 -3.456,-4.48 -4.48,-7.744 z"/>
</svg>
