<svg viewBox="0 0 374 250" xmlns="http://www.w3.org/2000/svg"><rect ry="4.319" height="250" width="374" fill="#eee"/><path style="marker:none" d="M128.556 31.398h116.888v107.204H128.556z" overflow="visible" fill="#ccc" fill-rule="evenodd" stroke="#fff" stroke-width="3.112" stroke-linecap="round" stroke-linejoin="round"/><path style="marker:none" d="M128.556 31.398h116.888v50.028H128.556z" overflow="visible" fill="#fff" fill-rule="evenodd" stroke="#fff" stroke-width="3.112" stroke-linecap="round" stroke-linejoin="round"/><path style="isolation:auto;mix-blend-mode:normal;solid-color:#000;solid-opacity:1;marker:none" d="M135.696 81.427l9.155-12.755 14.407-10.759 3.78 4.425 3.24-9.215 1.952-.71 3.168-6.721 42.841 42.882" color="#000" overflow="visible" fill="#ccc" fill-rule="evenodd" stroke="#fff" stroke-width="3.112" stroke-linecap="round" stroke-linejoin="round" paint-order="stroke"/><path style="isolation:auto;mix-blend-mode:normal;solid-color:#000;solid-opacity:1;marker:none" d="M171.398 45.692a211.135 211.135 0 014.086 20.935l-5.252-1.706-10.974-7.008 1.267 11.06-.385 5.905 2.393 7.237 17.419-2.8 20.007-5.035-11.377-18.448-2.309 3.558-6.456-5.27z" color="#000" overflow="visible" fill="#b3b3b3" fill-rule="evenodd" stroke="#fff" stroke-width="3.112" stroke-linecap="round" stroke-linejoin="round" paint-order="stroke"/><path d="M164.258 88.574l19.492-17.732 4.405-2.306 5.63-10.527 6.174-5.17L242.8 95.72" style="isolation:auto;mix-blend-mode:normal;solid-color:#000;solid-opacity:1;marker:none" color="#000" overflow="visible" fill="#ccc" fill-rule="evenodd" stroke="#fff" stroke-width="3.112" stroke-linecap="round" stroke-linejoin="round" paint-order="stroke"/><path style="isolation:auto;mix-blend-mode:normal;solid-color:#000;solid-opacity:1;marker:none" d="M199.959 52.839l8.554 19.276V86.46l5.345 4.638a19.411 19.411 0 015.342-3.742c3.528-1.668 7.459-2.23 11.227-3.245 1.53-.412 3.072-.918 4.335-1.875.322-.244.623-.515.898-.81h-7.14l-9.644-9.66-7.107-11.655-2.44 2.106z" color="#000" overflow="visible" fill="#b3b3b3" fill-rule="evenodd" stroke="#fff" stroke-width="3.112" stroke-linecap="round" stroke-linejoin="round" paint-order="stroke"/><path style="isolation:auto;mix-blend-mode:normal;solid-color:#000;solid-opacity:1;marker:none" d="M164.258 138.602c-.1-2.287-2.1-4.195 4.076-7.306 7.576-3.817 29.964-8.55 36.213-14.29 4.624-4.247-16.759-8.974-13.095-14.073 1.662-2.312 14.052-4.758 19.552-7.212 5.214-2.327 3.604-4.718 7.475-7.141 3.739-2.341 16.267-4.711 17.181-7.153-2.478 2.506-16.383 4.86-21.42 7.147-5.317 2.412-5.11 4.748-11.766 7.024-7.17 2.452-21.216 4.896-24.445 7.27-6.763 4.971 11.154 10.148 3.856 14.293-9.882 5.614-35.544 10.314-46.189 14.294-7.355 2.75-6.76 4.228-7.14 7.147" color="#000" overflow="visible" fill="#fff" fill-rule="evenodd" stroke="#fff" stroke-width="3.112" stroke-linecap="round" stroke-linejoin="round" paint-order="stroke"/><text y="178.875" x="187.844" style="line-height:1.25" font-weight="400" font-size="32" font-family="sans-serif" fill="#767676"><tspan style="-inkscape-font-specification:'sans-serif Bold';text-align:center" y="178.875" x="187.844" font-weight="700" text-anchor="middle">NO IMAGE</tspan><tspan style="-inkscape-font-specification:'sans-serif Bold';text-align:center" y="218.875" x="187.844" font-weight="700" text-anchor="middle">AVAILABLE</tspan></text></svg>