<svg viewBox="0 0 128 128" fill="#f97316" xmlns="http://www.w3.org/2000/svg"><rect width="128" height="128" rx="10" ry="10"/><rect fill="#fff" width="56" height="56" x="46" y="46" ry="6.861"/><rect fill="#fff" width="56" height="56" x="26" y="26" ry="6.861"/><path d="M57.628 35.219c3.903 2.823 8.925 3.824 12.499 7.144 3.108 2.428 5.765 5.61 6.873 9.403-.932 2.94-5.21 1.599-6.133-.69-.83-2.06-2.593-3.991-5.039-3.888-2.38.601-5.735.77-6.811 3.282-.184 2.415 3.136 3.121 3.81 5.39 2.557 3.99 3.272 8.726 4.721 13.126 1.032 2.2 2.478 5.169.46 7.265-1.84 1.683-4.566-.036-5.008-2.153-.685-2.195-1.08-4.463-1.965-6.602-1.537-4.46-3.232-8.992-6.268-12.71-2.822-1.77-5.474 1.486-6.308 3.879-2.885 5.376-4.933 11.22-5.925 17.197-.777 2.703-4.763 2.019-5.3-.446-.45-2.166 1.358-3.926 1.565-6.061 1.665-5.623 3.296-11.596 7.35-16.068 2.568-1.603.926-4.558-1.877-4.1-2.193-.576-5.01-1.659-6.835.274-1.863 1.713-2.39 5.485-5.57 5.298-2.744.067-3.475-3.243-2.378-5.23 3.813-6.008 9.996-11.007 16.81-13.22 3.067-1.323 3.255-4.517 5.665-6.478 2.983-1.145 4.898 2.218 5.298 4.616l.366.772zm-4.105 4.68c-3.092.079-6.13.99-8.824 2.457-.415 3.31 3.841 3.638 6.196 4.315 3.239.65 6.28-1.01 9.15-2.234 2.318-2.497-2.033-4.742-4.312-4.356-.737-.06-1.475-.11-2.21-.182z"/><path d="M76.099 71.868c3.298.868 5.216 1.15 7.882 1.422 3.168-.077 6.2-.218 6.575-3.332.066-4.69 1.549-9.183 2.166-13.8-5.325 4.123-8.93 7.623-13.917 12.324-.695.743-2.047 2.608-2.706 3.386zM51 96.243c.693-6.144 4.085-12.305 8.675-16.006 9.8-9.676 19.058-18.618 29.418-27.637 2.797-1.289 6.844-1.803 9.907-1.528-3.312 7.775-3.518 16.429-5.222 24.643-.727 4.815-2.012 9.733-1.295 14.616.736 1.44 5.562 1.07 2.131 2.242-2.04.912-4.972 1.925-6.653-.186-1.599-3.208-.385-6.047-.334-9.391.429-3.344-2.685-4.908-5.326-5.116-3.511-.497-6.313-.411-9.832-.745-3.202.544-5.12 3.766-7.526 5.669-3.815 3.786-7.167 6.862-9.876 11.645-.38 1.373-2.03 5.999-3.84 4.1-.069-.769-.05-1.55-.227-2.306z"/></svg>